<svg width="17" height="16" viewBox="0 0 17 16" fill="none" xmlns="http://www.w3.org/2000/svg">
<path d="M8.4 7.25569C7.4104 7.25569 6.5628 6.90016 5.8572 6.1891C5.1516 5.47804 4.7992 4.62429 4.8 3.62784C4.8 2.62978 5.1524 1.77522 5.8572 1.06417C6.562 0.354722 7.4096 0 8.4 0C9.3904 0 10.238 0.354722 10.9428 1.06417C11.6476 1.77522 12 2.62978 12 3.62784C12 4.6251 11.6476 5.47885 10.9428 6.1891C10.238 6.89935 9.3904 7.25488 8.4 7.25569ZM0 15.9988V14.0095C0 13.5105 0.144 13.0437 0.432 12.6092C0.7208 12.1738 1.1088 11.836 1.596 11.5958C2.7288 11.0484 3.862 10.638 4.9956 10.3647C6.13 10.0906 7.2648 9.95359 8.4 9.95359C9.536 9.95359 10.6708 10.0906 11.8044 10.3647C12.938 10.6389 14.0708 11.0492 15.2028 11.5958C15.6908 11.836 16.0788 12.1738 16.3668 12.6092C16.6556 13.0437 16.8 13.5105 16.8 14.0095V16L0 15.9988Z" fill="black"/>
</svg>
