<svg width="18" height="18" viewBox="0 0 18 18" fill="none" xmlns="http://www.w3.org/2000/svg">
<path d="M16.9535 16.9535L12.9271 12.9271L16.9535 16.9535ZM12.9271 12.9271C13.5734 12.2809 14.086 11.5137 14.4357 10.6693C14.7855 9.82493 14.9655 8.91994 14.9655 8.00601C14.9655 7.09207 14.7855 6.18709 14.4357 5.34272C14.086 4.49836 13.5734 3.73115 12.9271 3.0849C12.2809 2.43865 11.5137 1.92602 10.6693 1.57627C9.82493 1.22652 8.91994 1.04651 8.00601 1.04651C7.09207 1.04651 6.18709 1.22652 5.34272 1.57627C4.49836 1.92602 3.73115 2.43865 3.0849 3.0849C1.77974 4.39006 1.04651 6.16023 1.04651 8.00601C1.04651 9.85178 1.77974 11.622 3.0849 12.9271C4.39006 14.2323 6.16023 14.9655 8.00601 14.9655C9.85178 14.9655 11.622 14.2323 12.9271 12.9271Z" fill="white"/>
<path d="M16.9535 16.9535L12.9271 12.9271M12.9271 12.9271C13.5734 12.2809 14.086 11.5137 14.4357 10.6693C14.7855 9.82493 14.9655 8.91994 14.9655 8.00601C14.9655 7.09207 14.7855 6.18709 14.4357 5.34272C14.086 4.49836 13.5734 3.73115 12.9271 3.0849C12.2809 2.43865 11.5137 1.92602 10.6693 1.57627C9.82493 1.22652 8.91994 1.04651 8.00601 1.04651C7.09207 1.04651 6.18709 1.22652 5.34272 1.57627C4.49836 1.92602 3.73115 2.43865 3.0849 3.0849C1.77974 4.39006 1.04651 6.16023 1.04651 8.00601C1.04651 9.85178 1.77974 11.622 3.0849 12.9271C4.39006 14.2323 6.16023 14.9655 8.00601 14.9655C9.85178 14.9655 11.622 14.2323 12.9271 12.9271Z" stroke="black" stroke-width="2" stroke-linecap="round" stroke-linejoin="round"/>
</svg>
