<svg width="22" height="20" viewBox="0 0 22 20" fill="none" xmlns="http://www.w3.org/2000/svg">
<path d="M5.44444 6.625V3.25C5.44444 2.65326 5.67857 2.08097 6.09532 1.65901C6.51207 1.23705 7.0773 1 7.66667 1H18.7778C19.3671 1 19.9324 1.23705 20.3491 1.65901C20.7659 2.08097 21 2.65326 21 3.25V16.75C21 17.3467 20.7659 17.919 20.3491 18.341C19.9324 18.7629 19.3671 19 18.7778 19H12.1111M12.1111 19V12.0565C12.111 11.4598 11.8768 10.8876 11.46 10.4657L8.12667 7.09075C7.70994 6.66894 7.14481 6.43198 6.55556 6.43198C5.9663 6.43198 5.40117 6.66894 4.98444 7.09075L1.65111 10.4657C1.23433 10.8876 1.00013 11.4598 1 12.0565V16.75C1 17.3467 1.23413 17.919 1.65087 18.341C2.06762 18.7629 2.63285 19 3.22222 19H6.55556M12.1111 19H6.55556M6.55556 19V14.5M16.5578 10H16.5556" stroke="black" stroke-width="2" stroke-linecap="round" stroke-linejoin="round"/>
</svg>
