<svg width="13" height="13" viewBox="0 0 13 13" fill="none" xmlns="http://www.w3.org/2000/svg">
<path d="M9.29099 8.17607H8.7038L8.49568 7.97539C9.24927 7.10131 9.66345 5.9854 9.66263 4.83132C9.66263 3.87577 9.37928 2.94169 8.84841 2.14718C8.31754 1.35268 7.56299 0.733435 6.68018 0.367764C5.79737 0.00209333 4.82596 -0.0935828 3.88877 0.0928346C2.95159 0.279252 2.09073 0.73939 1.41506 1.41506C0.73939 2.09073 0.279252 2.95159 0.0928346 3.88877C-0.0935828 4.82596 0.00209333 5.79737 0.367764 6.68018C0.733435 7.56299 1.35268 8.31754 2.14718 8.84841C2.94169 9.37928 3.87577 9.66263 4.83132 9.66263C6.028 9.66263 7.12805 9.2241 7.97539 8.49568L8.17607 8.7038V9.29099L11.8925 13L13 11.8925L9.29099 8.17607ZM4.83132 8.17607C2.98055 8.17607 1.48656 6.68208 1.48656 4.83132C1.48656 2.98055 2.98055 1.48656 4.83132 1.48656C6.68208 1.48656 8.17607 2.98055 8.17607 4.83132C8.17607 6.68208 6.68208 8.17607 4.83132 8.17607Z" fill="#5E6A9F"/>
</svg>
