<svg width="22" height="23" viewBox="0 0 22 23" fill="none" xmlns="http://www.w3.org/2000/svg">
<path d="M19.4848 11.313C19.4848 11.0528 19.4735 10.8039 19.4508 10.5437L21.5551 8.94861C22.0076 8.60922 22.132 7.97569 21.8492 7.47792L19.7337 3.82381C19.598 3.58418 19.3786 3.40312 19.1176 3.31542C18.8566 3.22772 18.5724 3.23956 18.3195 3.34866L15.8872 4.37814C15.4686 4.08401 15.0274 3.82381 14.5636 3.60886L14.2355 0.995547C14.1676 0.429895 13.6812 0 13.1155 0H8.89578C8.31881 0 7.83235 0.429895 7.76447 0.995547L7.4364 3.60886C6.97256 3.82381 6.53135 4.08401 6.11277 4.37814L3.68047 3.34866C3.16007 3.1224 2.54916 3.32603 2.26634 3.82381L0.1508 7.48923C-0.132025 7.987 -0.00758207 8.60922 0.444939 8.95992L2.54916 10.5551C2.50227 11.0631 2.50227 11.5743 2.54916 12.0823L0.444939 13.6775C-0.00758207 14.0168 -0.132025 14.6504 0.1508 15.1482L2.26634 18.8023C2.54916 19.3 3.16007 19.5037 3.68047 19.2774L6.11277 18.2479C6.53135 18.5421 6.97256 18.8023 7.4364 19.0172L7.76447 21.6305C7.83235 22.1962 8.31881 22.6261 8.88446 22.6261H13.1042C13.6699 22.6261 14.1563 22.1962 14.2242 21.6305L14.5523 19.0172C15.0161 18.8023 15.4573 18.5421 15.8759 18.2479L18.3082 19.2774C18.8286 19.5037 19.4395 19.3 19.7223 18.8023L21.8379 15.1482C22.1207 14.6504 21.9963 14.0282 21.5437 13.6775L19.4395 12.0823C19.4735 11.8221 19.4848 11.5732 19.4848 11.313ZM11.0453 15.2726C8.86184 15.2726 7.08569 13.4964 7.08569 11.313C7.08569 9.12962 8.86184 7.35347 11.0453 7.35347C13.2287 7.35347 15.0048 9.12962 15.0048 11.313C15.0048 13.4964 13.2287 15.2726 11.0453 15.2726Z" fill="black"/>
</svg>
