<svg width="17" height="21" viewBox="0 0 17 21" fill="none" xmlns="http://www.w3.org/2000/svg">
<path d="M8.17005 21C9.35467 21 10.3239 20.0308 10.3239 18.8462H6.01621C6.01621 19.4174 6.24313 19.9652 6.64705 20.3692C7.05098 20.7731 7.59882 21 8.17005 21ZM14.6316 14.5385V9.15385C14.6316 5.84769 12.8654 3.08 9.78544 2.34769V1.61538C9.78544 0.721539 9.0639 0 8.17005 0C7.27621 0 6.55467 0.721539 6.55467 1.61538V2.34769C3.4639 3.08 1.70851 5.83692 1.70851 9.15385V14.5385L0.319283 15.9277C-0.359178 16.6062 0.114668 17.7692 1.07313 17.7692H15.2562C16.2147 17.7692 16.6993 16.6062 16.0208 15.9277L14.6316 14.5385Z" fill="black"/>
</svg>
