<svg width="9" height="4" viewBox="0 0 9 4" fill="none" xmlns="http://www.w3.org/2000/svg">
<path d="M1.99431 1.68749C1.99431 2.10988 1.87976 2.48112 1.70795 2.73885C1.53459 2.99862 1.32391 3.1193 1.12499 3.1193C0.926074 3.1193 0.715905 2.99862 0.542043 2.73885C0.370225 2.48112 0.25568 2.10988 0.25568 1.68749C0.25568 1.26511 0.370225 0.893859 0.542043 0.636134C0.715905 0.376362 0.926586 0.25568 1.12499 0.25568C1.32391 0.25568 1.53459 0.376362 1.70795 0.636134C1.87976 0.893859 1.99431 1.26511 1.99431 1.68749ZM8.74427 1.68749C8.74427 2.10988 8.62973 2.48112 8.45791 2.73885C8.28456 2.99862 8.07336 3.1193 7.87496 3.1193C7.67655 3.1193 7.46536 2.99862 7.292 2.73885C7.12019 2.48112 7.00564 2.10988 7.00564 1.68749C7.00564 1.26511 7.12019 0.893859 7.292 0.636134C7.46536 0.376362 7.67655 0.25568 7.87496 0.25568C8.07336 0.25568 8.28456 0.376362 8.45791 0.636134C8.62973 0.893859 8.74427 1.26511 8.74427 1.68749Z" fill="black" stroke="black" stroke-width="0.5"/>
</svg>
